<svg width="7692" height="4332" viewBox="0 0 7692 4332" fill="none" xmlns="http://www.w3.org/2000/svg">
<rect x="3" y="3906" width="7686" height="423" fill="#5AB369" stroke="#393939" stroke-width="6"/>
<path d="M3 3908.65V3911.65H6H3146H3149V3908.65V1634.4V1632.14L3146.83 1631.51L6.83101 726.303L3 725.199V729.186V3908.65Z" fill="#D75454" stroke="#393939" stroke-width="6"/>
<path d="M3 733.793V736.052L5.17056 736.676L3145.17 1640.03L3145.58 1640.15H3146H7686H7689V1637.15V6V3H7686H6H3V6V733.793Z" fill="#E3D462" stroke="#393939" stroke-width="6"/>
<path d="M3142 1639H3138.99L3139 1642.01L3143.01 3909.01L3143.01 3912H3146.01H7686H7689V3909V1642V1639H7686H3142Z" fill="#CCD1E7" stroke="#393939" stroke-width="6"/>
</svg>
